<?xml version="1.0" standalone="no"?>
<!DOCTYPE svg PUBLIC "-//W3C//DTD SVG 20010904//EN"
 "http://www.w3.org/TR/2001/REC-SVG-20010904/DTD/svg10.dtd">
<svg version="1.0" xmlns="http://www.w3.org/2000/svg"
 width="280.000000pt" height="390.000000pt" viewBox="0 0 280.000000 390.000000"
 preserveAspectRatio="xMidYMid meet">

<g transform="translate(0.000000,390.000000) scale(0.100000,-0.100000)"
fill="#000000" stroke="none">
<path d="M1620 3830 c-14 -5 -58 -18 -98 -30 -83 -24 -85 -37 -7 -63 24 -8 54
-26 67 -39 l23 -23 3 28 c3 24 7 27 43 27 44 0 47 7 27 71 -12 41 -16 43 -58
29z"/>
<path d="M868 3634 l-76 -36 -30 22 -29 22 -45 -49 c-118 -126 -122 -145 -25
-120 48 13 58 13 68 1 9 -11 15 -12 25 -3 11 9 12 15 3 26 -17 20 4 39 115
103 90 52 113 71 84 70 -7 -1 -47 -17 -90 -36z"/>
<path d="M1890 3620 c0 -58 10 -70 54 -70 46 0 88 19 49 21 -13 1 -28 2 -34 3
-6 0 -23 17 -39 36 -29 34 -29 34 -30 10z"/>
<path d="M1108 3577 c-21 -12 -37 -25 -35 -29 4 -14 82 -118 88 -118 3 0 15
28 27 62 19 58 19 64 3 85 -20 28 -36 28 -83 0z"/>
<path d="M1660 3530 c-58 -4 -108 -8 -112 -9 -5 0 -8 -15 -8 -31 0 -22 14 -48
51 -93 29 -34 56 -63 60 -65 22 -9 6 -18 -25 -14 -66 8 -72 -1 -22 -36 25 -18
46 -38 46 -44 0 -6 -22 -46 -49 -88 l-49 -78 45 -6 c75 -10 81 -8 87 22 2 15
10 56 17 92 12 64 13 66 60 93 54 30 75 33 82 15 10 -25 7 22 -9 129 -16 106
-24 124 -54 121 -8 -1 -62 -5 -120 -8z"/>
<path d="M2297 3376 c-2 -6 13 -32 35 -57 22 -27 36 -53 33 -62 -8 -20 22 -30
33 -11 8 14 12 14 45 1 43 -18 53 -11 63 49 l6 40 -49 12 c-26 6 -74 18 -105
25 -41 10 -58 11 -61 3z"/>
<path d="M195 3067 c-11 -28 -44 -166 -50 -209 -7 -44 -6 -46 21 -52 15 -4 67
-4 116 0 l88 7 0 58 0 59 34 0 c37 0 66 21 66 48 0 9 14 25 31 35 18 10 30 19
28 22 -5 5 -259 41 -302 43 -15 1 -30 -4 -32 -11z"/>
<path d="M2551 2923 c-17 -36 -30 -67 -27 -70 2 -2 32 1 65 8 51 10 64 17 76
39 16 31 7 44 -51 73 l-30 16 -33 -66z"/>
<path d="M1454 2923 c-9 -14 -16 -15 -45 -7 -31 9 -38 7 -76 -24 -46 -37 -48
-64 -5 -60 24 3 27 -2 36 -39 10 -47 17 -50 79 -32 l37 10 0 72 c0 80 -9 107
-26 80z"/>
<path d="M1007 2736 c-28 -123 -30 -152 -13 -184 9 -17 29 -38 46 -47 l29 -15
61 76 c72 89 104 140 96 153 -7 10 -41 17 -148 29 -63 8 -67 7 -71 -12z"/>
<path d="M1733 2406 c-25 -37 -47 -57 -66 -61 -30 -7 -57 -30 -57 -49 0 -15
127 -46 188 -46 35 0 42 3 42 19 0 20 -59 191 -66 191 -2 0 -20 -24 -41 -54z"/>
<path d="M2646 2351 c-6 -8 -45 -19 -94 -25 -13 -1 -51 -32 -87 -71 -62 -65
-66 -68 -90 -55 -21 11 -27 11 -42 -2 -10 -9 -49 -37 -87 -63 l-68 -46 -22 20
c-22 20 -24 21 -57 5 -19 -10 -47 -26 -63 -37 l-29 -21 -38 44 -38 44 -58 -28
c-32 -16 -68 -33 -81 -39 -12 -6 -38 -34 -57 -63 -20 -29 -63 -77 -96 -106
-34 -29 -70 -70 -81 -92 -25 -49 -26 -128 -4 -215 13 -48 17 -103 17 -212 -2
-177 4 -199 55 -199 83 0 399 131 537 224 95 63 209 174 273 266 101 144 192
364 228 550 9 47 19 95 22 108 3 17 0 22 -15 22 -11 0 -22 -4 -25 -9z"/>
<path d="M2270 2343 c0 -3 7 -14 16 -24 15 -17 18 -17 40 -2 35 22 30 33 -16
33 -22 0 -40 -3 -40 -7z"/>
<path d="M146 2244 c8 -26 14 -70 14 -98 0 -69 27 -123 161 -322 172 -255 302
-376 524 -485 122 -60 257 -101 371 -114 l59 -7 14 78 c30 168 23 423 -14 494
-9 17 -41 50 -72 73 -30 23 -97 78 -148 122 -51 45 -117 94 -147 109 -60 32
-108 73 -108 92 0 14 -48 1 -106 -29 -67 -34 -70 -33 -105 33 -20 38 -44 67
-62 76 -27 15 -31 14 -66 -9 -51 -34 -177 -97 -194 -97 -7 0 -22 19 -33 42
-13 30 -31 50 -61 66 l-41 23 14 -47z"/>
<path d="M1025 2210 c-6 -29 -9 -30 -43 -24 l-37 6 60 -59 c108 -104 268 -234
284 -231 8 2 20 15 25 30 7 21 3 39 -22 91 -18 36 -32 71 -32 78 0 8 -7 5 -20
-6 -19 -17 -21 -17 -55 9 -19 15 -49 45 -67 67 -18 23 -45 47 -60 55 -26 13
-27 13 -33 -16z"/>
<path d="M1533 2127 c-52 -103 -68 -163 -54 -200 12 -31 31 -34 69 -11 29 17
99 98 145 166 l27 41 -47 27 c-27 14 -59 33 -73 43 l-26 17 -41 -83z"/>
<path d="M380 446 c0 -9 152 -331 162 -343 13 -17 60 -17 80 0 16 13 158 314
158 336 0 8 -14 11 -42 9 -48 -3 -43 3 -112 -148 -41 -89 -44 -93 -54 -69 -5
14 -30 69 -55 122 l-46 97 -45 0 c-25 0 -46 -2 -46 -4z"/>
<path d="M836 434 c-3 -9 -6 -84 -6 -169 0 -118 3 -155 14 -164 9 -8 63 -11
167 -9 l154 3 0 30 0 30 -117 3 -118 3 0 39 0 39 103 3 102 3 0 30 0 30 -102
3 -103 3 0 39 0 40 120 0 120 0 0 30 0 30 -164 0 c-140 0 -165 -2 -170 -16z"/>
<path d="M1232 273 l3 -178 40 0 40 0 3 69 3 68 47 -5 c48 -5 58 -13 125 -101
24 -31 34 -36 67 -36 26 0 40 5 40 13 0 16 -67 117 -88 133 -14 10 -14 12 5
18 12 4 33 16 47 27 45 35 32 120 -24 152 -23 14 -55 17 -169 17 l-141 0 2
-177z m246 101 c29 -20 25 -54 -8 -71 -14 -7 -53 -13 -87 -13 l-63 0 0 50 0
50 68 0 c46 0 75 -5 90 -16z"/>
<path d="M1662 273 l3 -178 120 0 c132 0 180 14 218 66 30 42 35 144 9 203
-31 70 -73 85 -230 86 l-122 0 2 -177z m238 97 c27 -14 40 -50 40 -106 0 -37
-6 -51 -29 -75 -27 -26 -36 -29 -95 -29 l-66 0 0 116 0 117 65 -6 c36 -4 74
-11 85 -17z"/>
<path d="M2094 437 c-2 -7 -3 -87 -2 -177 l3 -165 165 0 165 0 0 30 0 30 -122
3 -123 3 0 39 0 40 105 0 c89 0 107 3 112 16 14 38 -9 49 -116 52 l-101 3 0
39 0 39 123 3 122 3 3 28 3 27 -166 0 c-126 0 -167 -3 -171 -13z"/>
</g>
</svg>
